<svg xmlns="http://www.w3.org/2000/svg" id="svg1" width="46.073" height="46.073" viewBox="0 0 46.073 46.073"><g id="layer1" transform="translate(-.966 -.89)"><circle id="path4" cx="24.003" cy="23.927" r="23.036" style="fill:#000;fill-opacity:1;fill-rule:nonzero;stroke:none;stroke-width:1.73817;stroke-opacity:1"/></g><path id="path20" d="M3.567 39.776c0 .2.08.36.36.64.88.96 2.16 1.64 3.48 1.92.28.04.88.08 1.44.08.32 0 .64 0 .84-.04 2.76-.32 5.96-2.4 7.6-4.92.68-1.04 2.48-4.48 3.48-6.68l.4-.92h7.4c.12.4.36.64.92.64 1.56 0 3.8-1.28 4.64-2.64.16-.28.36-1.08.36-1.36-.04-.36-.24-.48-.6-.64h-11.08l.32-.92c.72-2 1.56-4.84 1.96-6.52.04-.16.12-.4.12-.48l.04-.16h5.24c2.2 0 3.84.04 3.84.28 0 .08.2.28.4.36.24.12.52.16 1.08.08 1.64-.28 3.76-1.72 4.2-2.92.04-.12.08-.24.08-.36 0-.76-.76-1.16-1.4-1.24-.76-.16-.68-.16-10.84-.2-5.44 0-10 0-10.12.04-2.24.08-3.88.56-5.44 1.48-.92.56-1.8 1.32-2.24 2-.24.36-.48.92-.48 1.16 0 .4.4.72.92.72 1.28 0 2.76-.72 3.44-1.4h6.08l-.16.64c-1 4.84-2.6 9.56-4.8 14.32-.72 1.6-2.36 4.76-2.8 5.44-.08.16-.08.16-.28.16-1.04-.16-1.76-.56-2.48-1.28-.44-.44-.48-.6-1.2-.6-1.84.12-4.72 1.92-4.72 3.32" style="fill:#fff;stroke-width:1.26962"/></svg>